HIERARCHY
ROOT Hips
{
	OFFSET 0.000000 0.000000 0.000000
	CHANNELS 6 Xposition Yposition Zposition Xrotation Yrotation Zrotation
	JOINT LeftUpLeg_virtual
	{
		OFFSET 0.000000 0.000000 0.000000
		CHANNELS 3 Xrotation Yrotation Zrotation
		JOINT LeftUpLeg
		{
			OFFSET 15.427100 -6.655098 0.678600
			CHANNELS 3 Xrotation Yrotation Zrotation
			JOINT LeftLeg
			{
				OFFSET 4.081073 -39.591068 13.024000
				CHANNELS 3 Xrotation Yrotation Zrotation
				JOINT LeftFoot
				{
					OFFSET -4.081074 -37.707932 -15.979700
					CHANNELS 3 Xrotation Yrotation Zrotation
					JOINT LeftToeBase
					{
						OFFSET 5.346399 -15.068900 20.645000
						CHANNELS 3 Xrotation Yrotation Zrotation
						JOINT LeftToe_End
						{
							OFFSET 2.754700 0.931300 11.300900
							CHANNELS 3 Xrotation Yrotation Zrotation
							End Site
							{
								OFFSET 0 0 0
							}
						}
					}
				}
			}
		}
	}
	JOINT RightUpLeg_virtual
	{
		OFFSET 0.000000 0.000000 0.000000
		CHANNELS 3 Xrotation Yrotation Zrotation
		JOINT RightUpLeg
		{
			OFFSET -15.569500 -6.655098 0.678600
			CHANNELS 3 Xrotation Yrotation Zrotation
			JOINT RightLeg
			{
				OFFSET -4.081825 -39.591045 13.023800
				CHANNELS 3 Xrotation Yrotation Zrotation
				JOINT RightFoot
				{
					OFFSET 4.081824 -37.707954 -15.979600
					CHANNELS 3 Xrotation Yrotation Zrotation
					JOINT RightToeBase
					{
						OFFSET -5.346400 -15.068900 20.645000
						CHANNELS 3 Xrotation Yrotation Zrotation
						JOINT RightToe_End
						{
							OFFSET -2.754700 0.931300 11.300900
							CHANNELS 3 Xrotation Yrotation Zrotation
							End Site
							{
								OFFSET 0 0 0
							}
						}
					}
				}
			}
		}
	}
	JOINT Spine_virtual
	{
		OFFSET 0.000000 0.000000 0.000000
		CHANNELS 3 Xrotation Yrotation Zrotation
		JOINT Spine
		{
			OFFSET -0.279200 12.230698 -2.892100
			CHANNELS 3 Xrotation Yrotation Zrotation
			JOINT Spine1
			{
				OFFSET -0.232667 10.192268 -1.242267
				CHANNELS 3 Xrotation Yrotation Zrotation
				JOINT Spine1_split
				{
					OFFSET -0.232667 10.192268 -1.242267
					CHANNELS 3 Xrotation Yrotation Zrotation
					JOINT Spine2
					{
						OFFSET -0.232667 10.192268 -1.242267
						CHANNELS 3 Xrotation Yrotation Zrotation
						JOINT Neck_virtual
						{
							OFFSET 0.000000 0.000000 0.000000
							CHANNELS 3 Xrotation Yrotation Zrotation
							JOINT Neck
							{
								OFFSET -0.418800 17.814194 8.416900
								CHANNELS 3 Xrotation Yrotation Zrotation
								JOINT Head
								{
									OFFSET 0.000000 7.031097 3.806800
									CHANNELS 3 Xrotation Yrotation Zrotation
									JOINT HeadTop_End
									{
										OFFSET 0.000000 24.646606 12.978600
										CHANNELS 3 Xrotation Yrotation Zrotation
										End Site
										{
											OFFSET 0 0 0
										}
									}
								}
							}
						}
						JOINT LeftShoulder_virtual
						{
							OFFSET 0.000000 0.000000 0.000000
							CHANNELS 3 Xrotation Yrotation Zrotation
							JOINT LeftShoulder
							{
								OFFSET 8.476499 7.247704 -3.868750
								CHANNELS 3 Xrotation Yrotation Zrotation
								JOINT LeftShoulder_split
								{
									OFFSET 8.476499 7.247704 -3.868750
									CHANNELS 3 Xrotation Yrotation Zrotation
									JOINT LeftArm
									{
										OFFSET 9.308998 -2.777710 0.208600
										CHANNELS 3 Xrotation Yrotation Zrotation
										JOINT LeftForeArm
										{
											OFFSET 29.972298 0.000000 0.000000
											CHANNELS 3 Xrotation Yrotation Zrotation
											JOINT LeftHand
											{
												OFFSET 26.026505 0.000000 0.000000
												CHANNELS 3 Xrotation Yrotation Zrotation
												End Site
												{
													OFFSET 0 0 0
												}
											}
										}
									}
								}
							}
						}
						JOINT RightShoulder_virtual
						{
							OFFSET 0.000000 0.000000 0.000000
							CHANNELS 3 Xrotation Yrotation Zrotation
							JOINT RightShoulder
							{
								OFFSET -7.570500 7.247704 -3.868750
								CHANNELS 3 Xrotation Yrotation Zrotation
								JOINT RightShoulder_split
								{
									OFFSET -7.570500 7.247704 -3.868750
									CHANNELS 3 Xrotation Yrotation Zrotation
									JOINT RightArm
									{
										OFFSET -9.308998 -2.777710 0.208500
										CHANNELS 3 Xrotation Yrotation Zrotation
										JOINT RightForeArm
										{
											OFFSET -29.972300 0.000000 0.000000
											CHANNELS 3 Xrotation Yrotation Zrotation
											JOINT RightHand
											{
												OFFSET -26.026505 0.000000 0.000000
												CHANNELS 3 Xrotation Yrotation Zrotation
												End Site
												{
													OFFSET 0 0 0
												}
											}
										}
									}
								}
							}
						}
					}
				}
			}
		}
	}
}
MOTION
Frames: 9
Frame Time: 0.03333333
0.550224 80.182709 -1.729599 0.000000 0.000000 0.000000 -5.350642 -62.890237 -4.042362 -30.375624 10.413523 32.678408 39.788051 -8.332268 -12.103231 -9.889537 -3.043871 -7.026308 -0.377685 1.217064 1.050747 0.000000 0.000000 0.000000 -6.115975 -61.132256 -4.140443 -21.446659 -10.994654 -24.783750 38.509413 4.326874 -9.009995 -17.102343 3.006463 19.967083 3.332080 -0.427493 -0.400307 0.000000 0.000000 0.000000 -5.525719 -60.751241 -3.935651 10.575880 2.433302 -0.968202 7.483766 0.395328 -5.107691 0.472970 -1.695488 1.113563 0.000000 0.000000 0.000000 7.893121 0.764495 -4.950118 -25.415766 23.233619 11.281500 -3.517366 26.341398 -3.106826 0.000000 0.000000 0.000000 9.017077 0.448705 -4.645011 -5.708253 -10.082570 -1.660078 -2.276344 -1.433449 -2.361689 -17.998231 3.489234 -34.999911 4.888560 -49.561376 2.811261 0.000000 0.000000 0.000000 8.471397 0.450689 -4.936444 -4.122442 11.639434 1.926605 1.803294 1.006532 0.956933 -38.809657 -25.178809 32.490916 -157.308436 64.967182 157.853622 0.000000 0.000000 0.000000 
0.486654 80.101967 -1.806786 0.000000 0.000000 0.000000 -4.970812 -62.793249 -3.329110 -30.118870 10.059792 32.011140 39.434101 -7.974202 -12.109855 -9.749368 -2.784525 -7.199576 -0.084073 1.214467 0.968394 0.000000 0.000000 0.000000 -5.792236 -61.290047 -3.455321 -21.928462 -10.655173 -25.630215 38.621971 4.536584 -8.952425 -17.254864 3.414172 20.154015 3.262047 -0.372613 -0.380239 0.000000 0.000000 0.000000 -4.693857 -60.534928 -3.000571 10.425633 2.507119 -0.740180 7.966118 0.498261 -4.988123 0.432274 -1.646577 1.177171 0.000000 0.000000 0.000000 8.226057 0.898465 -4.885203 -23.435303 23.321003 11.662425 -2.742995 25.793014 -2.901890 0.000000 0.000000 0.000000 9.400928 0.496692 -4.549043 -5.841153 -10.680017 -2.412979 -2.130027 -1.207623 -2.349720 -16.496398 4.808790 -34.971050 5.258145 -49.919845 2.855368 0.000000 0.000000 0.000000 8.827532 0.569752 -4.746608 -4.193048 11.742467 2.587235 1.400101 0.842296 0.848667 -39.486092 -24.689025 31.117334 -157.512591 64.179886 158.317515 0.000000 0.000000 0.000000 
0.400906 80.216560 -1.836117 0.000000 0.000000 0.000000 -4.265986 -62.761058 -2.288113 -29.773945 9.706670 31.130715 38.799877 -7.627496 -11.964460 -9.454186 -2.601739 -7.583914 0.197188 1.210840 0.912730 0.000000 0.000000 0.000000 -5.279477 -61.380560 -2.551192 -22.316931 -10.508216 -26.374668 38.486832 4.582103 -8.785347 -17.224759 3.660694 20.298402 3.070638 -0.343299 -0.377934 0.000000 0.000000 0.000000 -3.783197 -60.269562 -1.962825 10.312117 2.518394 -0.661074 8.380661 0.561002 -4.867337 0.457528 -1.885885 1.218861 0.000000 0.000000 0.000000 8.583903 0.987873 -4.787315 -21.983198 23.436513 11.727949 -2.108107 25.042148 -2.901395 0.000000 0.000000 0.000000 9.747725 0.505733 -4.409408 -5.956512 -11.141846 -2.955309 -2.146785 -0.789427 -2.373746 -15.248008 5.572715 -35.050526 5.741848 -49.065641 3.027141 0.000000 0.000000 0.000000 9.074068 0.638842 -4.549031 -4.254973 11.428816 3.124569 0.878522 0.682719 0.946451 -39.998052 -23.468875 30.439175 -157.029874 64.230006 157.972850 0.000000 0.000000 0.000000 
0.322622 80.408745 -1.822971 0.000000 0.000000 0.000000 -3.530148 -62.710856 -1.233908 -29.485892 9.347774 30.199808 38.233954 -7.369137 -11.679221 -9.165257 -2.515755 -8.138929 0.293221 1.207891 0.929605 0.000000 0.000000 0.000000 -4.722485 -61.414561 -1.628529 -22.625077 -10.438733 -26.905830 38.382118 4.433994 -8.589718 -17.210688 3.687809 20.358053 2.866328 -0.341338 -0.394147 0.000000 0.000000 0.000000 -3.068792 -59.958966 -1.083934 10.292894 2.456634 -0.727589 8.721952 0.550617 -4.782232 0.564999 -2.254817 1.170727 0.000000 0.000000 0.000000 8.964321 1.000806 -4.714544 -21.156342 23.579654 11.578566 -1.561027 24.348390 -3.123600 0.000000 0.000000 0.000000 10.069688 0.444912 -4.281562 -6.033169 -11.464220 -3.268380 -2.234281 -0.305105 -2.526012 -14.539612 5.778953 -34.966146 6.038001 -47.318635 3.132630 0.000000 0.000000 0.000000 9.263432 0.617857 -4.402487 -4.296019 10.846794 3.461703 0.462815 0.561771 1.138718 -40.451242 -22.094967 30.463562 -156.729428 64.478379 157.684520 0.000000 0.000000 0.000000 
0.264001 80.556839 -1.761669 0.000000 0.000000 0.000000 -2.882288 -62.623068 -0.316860 -29.363260 9.006442 29.346164 37.991401 -7.178758 -11.342336 -9.014681 -2.509184 -8.719628 0.174016 1.214501 1.006065 0.000000 0.000000 0.000000 -4.179657 -61.319949 -0.798595 -22.822083 -10.361105 -27.238458 38.356754 4.138336 -8.445482 -17.310184 3.521719 20.377943 2.685531 -0.352655 -0.426750 0.000000 0.000000 0.000000 -2.683563 -59.686503 -0.473837 10.378243 2.328500 -0.912065 8.971272 0.461710 -4.765453 0.743798 -2.684351 1.102409 0.000000 0.000000 0.000000 9.342681 0.932355 -4.697587 -20.827181 23.734829 11.342051 -1.070790 23.860057 -3.501884 0.000000 0.000000 0.000000 10.370339 0.328784 -4.223941 -6.065994 -11.589180 -3.413513 -2.303492 0.077499 -2.671539 -14.331470 5.646807 -34.625743 5.941722 -45.258425 3.018864 0.000000 0.000000 0.000000 9.451348 0.508587 -4.364975 -4.325927 10.195959 3.590531 0.412287 0.594489 1.395924 -40.811825 -21.158246 31.122396 -157.164046 64.466283 158.004583 0.000000 0.000000 0.000000 
0.225802 80.612595 -1.659451 0.000000 0.000000 0.000000 -2.393238 -62.489858 0.403527 -29.461376 8.739417 28.652029 38.068005 -7.033209 -11.050058 -9.058949 -2.511204 -9.154496 -0.036266 1.237574 1.100846 0.000000 0.000000 0.000000 -3.647519 -61.117892 -0.072486 -22.916256 -10.207827 -27.427997 38.377511 3.770421 -8.405137 -17.518329 3.228677 20.423775 2.594276 -0.373832 -0.475005 0.000000 0.000000 0.000000 -2.546548 -59.452972 -0.058775 10.536049 2.164851 -1.163906 9.123986 0.326853 -4.826633 0.729261 -2.843980 1.080732 0.000000 0.000000 0.000000 9.660583 0.805200 -4.756146 -20.755198 23.861783 11.106696 -0.501223 23.574673 -3.906938 0.000000 0.000000 0.000000 10.631148 0.185372 -4.267570 -6.075651 -11.524185 -3.470140 -2.328352 0.389533 -2.947600 -14.460368 5.526928 -34.085164 5.409794 -43.370718 2.666805 0.000000 0.000000 0.000000 9.636305 0.341145 -4.451270 -4.353588 9.689816 3.575564 0.668401 0.552113 1.642267 -41.002780 -20.931837 32.248192 -158.296888 64.159614 158.923243 0.000000 0.000000 0.000000 
0.179600 80.573837 -1.512764 0.000000 0.000000 0.000000 -2.002265 -62.284297 0.992428 -29.682230 8.639755 28.178149 38.306850 -6.917792 -10.887650 -9.285907 -2.529800 -9.341499 -0.239504 1.264998 1.191997 0.000000 0.000000 0.000000 -3.146288 -60.943606 0.577448 -22.984292 -9.934560 -27.598274 38.412537 3.437990 -8.471642 -17.753970 2.897764 20.532932 2.621942 -0.387497 -0.531346 0.000000 0.000000 0.000000 -2.495884 -59.291793 0.298876 10.726458 2.001351 -1.442456 9.190313 0.185069 -4.946488 0.634313 -2.853621 1.077405 0.000000 0.000000 0.000000 9.883596 0.659974 -4.883925 -20.682282 23.940286 10.924137 0.124075 23.485628 -4.203129 0.000000 0.000000 0.000000 10.818189 0.050948 -4.401592 -6.065890 -11.375402 -3.470282 -2.266176 0.669030 -3.338170 -14.697377 5.635363 -33.470666 4.626936 -41.950547 2.184775 0.000000 0.000000 0.000000 9.815923 0.165721 -4.622048 -4.385644 9.483311 3.456646 1.128890 0.378226 1.838507 -41.049997 -21.349069 33.502795 -159.692145 63.710802 160.027002 0.000000 0.000000 0.000000 
0.128467 80.480560 -1.347672 0.000000 0.000000 0.000000 -1.568625 -62.087335 1.610910 -29.945766 8.714350 27.912167 38.560000 -6.825644 -10.883545 -9.592719 -2.564215 -9.254041 -0.321495 1.287752 1.251403 0.000000 0.000000 0.000000 -2.632763 -60.781819 1.220445 -23.083683 -9.582943 -27.886520 38.437607 3.191839 -8.596520 -17.930985 2.570298 20.730048 2.737413 -0.390920 -0.594675 0.000000 0.000000 0.000000 -2.342734 -59.190720 0.772625 10.919603 1.870304 -1.709969 9.200942 0.078036 -5.090338 0.525638 -2.762928 1.109398 0.000000 0.000000 0.000000 10.013875 0.539822 -5.031108 -20.500278 23.942941 10.806347 0.738495 23.506117 -4.348150 0.000000 0.000000 0.000000 10.932263 -0.043910 -4.585014 -6.050570 -11.227913 -3.391924 -2.158681 0.849067 -3.633770 -14.946441 6.050561 -33.042871 3.798264 -41.045072 1.704490 0.000000 0.000000 0.000000 9.968664 0.038311 -4.822883 -4.413098 9.641371 3.306528 1.564704 0.106081 2.030133 -40.848093 -22.094458 34.693335 -160.775126 63.428565 160.769812 0.000000 0.000000 0.000000 
0.061075 80.391052 -1.222519 0.000000 0.000000 0.000000 -1.113049 -61.911089 2.268439 -30.198131 8.910507 27.815138 38.668679 -6.821682 -11.004657 -9.879750 -2.650772 -9.035302 -0.302640 1.294393 1.302590 0.000000 0.000000 0.000000 -2.103501 -60.660522 1.896884 -23.252798 -9.226038 -28.314648 38.542344 3.018401 -8.716523 -18.023795 2.259529 20.969456 2.871239 -0.388111 -0.658319 0.000000 0.000000 0.000000 -1.946875 -59.089975 1.449546 11.097930 1.791057 -1.930126 9.203390 0.029328 -5.228221 0.414012 -2.655728 1.165425 0.000000 0.000000 0.000000 10.075632 0.478859 -5.184429 -20.175242 23.884149 10.732727 1.281347 23.538517 -4.339661 0.000000 0.000000 0.000000 10.966290 -0.082039 -4.779230 -6.044340 -11.175633 -3.211737 -1.985269 0.948298 -3.818875 -15.254939 6.615643 -32.962862 3.138991 -40.470517 1.367236 0.000000 0.000000 0.000000 10.072077 -0.005511 -5.003534 -4.418903 10.136575 3.176868 1.803666 -0.294391 2.150961 -40.461160 -22.777991 35.586997 -161.224703 63.383029 160.870366 0.000000 0.000000 0.000000 
